<?xml version="1.0" encoding="UTF-8" standalone="no"?>
<!-- Created with Inkscape (http://www.inkscape.org/) -->

<svg
   xmlns:dc="http://purl.org/dc/elements/1.1/"
   xmlns:cc="http://creativecommons.org/ns#"
   xmlns:rdf="http://www.w3.org/1999/02/22-rdf-syntax-ns#"
   xmlns:svg="http://www.w3.org/2000/svg"
   xmlns="http://www.w3.org/2000/svg"
   xmlns:sodipodi="http://sodipodi.sourceforge.net/DTD/sodipodi-0.dtd"
   xmlns:inkscape="http://www.inkscape.org/namespaces/inkscape"
   width="48"
   height="48"
   id="svg3089"
   version="1.1"
   inkscape:version="0.48.4 r9939"
   sodipodi:docname="Neues Dokument 6">
  <defs
     id="defs3091" />
  <sodipodi:namedview
     id="base"
     pagecolor="#ffffff"
     bordercolor="#666666"
     borderopacity="1.0"
     inkscape:pageopacity="0.0"
     inkscape:pageshadow="2"
     inkscape:zoom="16"
     inkscape:cx="26.087805"
     inkscape:cy="25.247409"
     inkscape:document-units="px"
     inkscape:current-layer="layer1"
     showgrid="true"
     inkscape:window-width="1920"
     inkscape:window-height="1138"
     inkscape:window-x="1912"
     inkscape:window-y="-8"
     inkscape:window-maximized="1">
    <inkscape:grid
       type="xygrid"
       id="grid3097"
       empspacing="4"
       visible="true"
       enabled="true"
       snapvisiblegridlinesonly="true" />
  </sodipodi:namedview>
  <metadata
     id="metadata3094">
    <rdf:RDF>
      <cc:Work
         rdf:about="">
        <dc:format>image/svg+xml</dc:format>
        <dc:type
           rdf:resource="http://purl.org/dc/dcmitype/StillImage" />
        <dc:title></dc:title>
      </cc:Work>
    </rdf:RDF>
  </metadata>
  <g
     inkscape:label="Ebene 1"
     inkscape:groupmode="layer"
     id="layer1"
     transform="translate(0,-1004.3622)">
    <rect
       style="fill:#808080;fill-opacity:1;stroke:none"
       id="rect3099"
       width="42.000004"
       height="22.000006"
       x="3"
       y="23"
       transform="translate(0,1004.3622)" />
    <rect
       style="fill:#ffffff;fill-opacity:1;stroke:none"
       id="rect3101"
       width="38"
       height="26"
       x="5"
       y="17"
       transform="translate(0,1004.3622)" />
    <rect
       style="fill:#808080;fill-opacity:1;stroke:none"
       id="rect3103"
       width="4"
       height="4"
       x="7"
       y="1041.3622" />
    <rect
       style="fill:#808080;fill-opacity:1;stroke:none"
       id="rect3103-1"
       width="4"
       height="4"
       x="13"
       y="1041.3622" />
    <rect
       style="fill:#808080;fill-opacity:1;stroke:none"
       id="rect3103-1-8"
       width="4"
       height="4"
       x="19"
       y="1041.3622" />
    <rect
       style="fill:#808080;fill-opacity:1;stroke:none"
       id="rect3103-1-8-2"
       width="4"
       height="4"
       x="25"
       y="1041.3622" />
    <rect
       style="fill:#808080;fill-opacity:1;stroke:none"
       id="rect3103-1-8-2-6"
       width="4"
       height="4"
       x="31"
       y="1041.3622" />
    <rect
       style="fill:#808080;fill-opacity:1;stroke:none"
       id="rect3103-1-8-2-6-6"
       width="4"
       height="4"
       x="37"
       y="1041.3622" />
    <rect
       style="fill:#808080;fill-opacity:1;stroke:none"
       id="rect3103-0"
       width="4"
       height="4"
       x="7"
       y="1035.3622" />
    <rect
       style="fill:#808080;fill-opacity:1;stroke:none"
       id="rect3103-1-3"
       width="4"
       height="4"
       x="13"
       y="1035.3622" />
    <rect
       style="fill:#808080;fill-opacity:1;stroke:none"
       id="rect3103-1-8-8"
       width="4"
       height="4"
       x="19"
       y="1035.3622" />
    <rect
       style="fill:#808080;fill-opacity:1;stroke:none"
       id="rect3103-1-8-2-0"
       width="4"
       height="4"
       x="25"
       y="1035.3622" />
    <rect
       style="fill:#808080;fill-opacity:1;stroke:none"
       id="rect3103-1-8-2-6-1"
       width="4"
       height="4"
       x="31"
       y="1035.3622" />
    <rect
       style="fill:#808080;fill-opacity:1;stroke:none"
       id="rect3103-1-8-2-6-6-2"
       width="4"
       height="4"
       x="37"
       y="1035.3622" />
    <rect
       style="fill:#808080;fill-opacity:1;stroke:none"
       id="rect3103-0-5"
       width="4"
       height="4"
       x="-29.009871"
       y="1029.0477"
       transform="matrix(0.99939048,-0.03490955,0.03490955,0.99939048,0,0)" />
    <rect
       style="fill:#808080;fill-opacity:1;stroke:none"
       id="rect3103-1-3-0"
       width="4"
       height="4"
       x="149.08597"
       y="1017.1376"
       transform="matrix(0.99114688,0.13276998,-0.13276998,0.99114688,0,0)" />
    <rect
       style="fill:#808080;fill-opacity:1;stroke:none"
       id="rect3103-1-8-8-9"
       width="4"
       height="4"
       x="56.875023"
       y="1026.127"
       transform="matrix(0.99929558,0.037528,-0.037528,0.99929558,0,0)" />
    <rect
       style="fill:#808080;fill-opacity:1;stroke:none"
       id="rect3103-1-8-2-0-4"
       width="4"
       height="4"
       x="183.64857"
       y="1012.367"
       transform="matrix(0.98803775,0.15421223,-0.15421223,0.98803775,0,0)" />
    <rect
       style="fill:#808080;fill-opacity:1;stroke:none"
       id="rect3103-1-8-2-6-1-7"
       width="4"
       height="4"
       x="183.83139"
       y="1012.5131"
       transform="matrix(0.98890473,0.14855111,-0.14855111,0.98890473,0,0)" />
    <rect
       style="fill:#808080;fill-opacity:1;stroke:none"
       id="rect3103-1-8-2-6-6-2-8"
       width="4"
       height="4"
       x="-95.291031"
       y="1025.8744"
       transform="matrix(0.99177966,-0.12795742,0.12795742,0.99177966,0,0)" />
    <rect
       style="fill:#808080;fill-opacity:1;stroke:none"
       id="rect3103-0-3"
       width="4"
       height="4"
       x="461.69733"
       y="910.37622"
       transform="matrix(0.89527044,0.44552311,-0.44552311,0.89527044,0,0)" />
    <rect
       style="fill:#808080;fill-opacity:1;stroke:none"
       id="rect3103-1-3-5"
       width="4"
       height="4"
       x="299.27298"
       y="975.07373"
       transform="matrix(0.9599616,0.28013161,-0.28013161,0.9599616,0,0)" />
    <rect
       style="fill:#808080;fill-opacity:1;stroke:none"
       id="rect3103-1-8-8-1"
       width="4"
       height="4"
       x="-529.33466"
       y="874.20093"
       transform="matrix(0.84551658,-0.53394916,0.53394916,0.84551658,0,0)" />
    <rect
       style="fill:#808080;fill-opacity:1;stroke:none"
       id="rect3103-1-8-2-0-2"
       width="4"
       height="4"
       x="-233.39366"
       y="994.19543"
       transform="matrix(0.9675394,-0.25272023,0.25272023,0.9675394,0,0)" />
    <rect
       style="fill:#808080;fill-opacity:1;stroke:none"
       id="rect3103-1-8-2-6-1-0"
       width="4"
       height="4"
       x="428.6763"
       y="925.71033"
       transform="matrix(0.92068972,0.39029533,-0.39029533,0.92068972,0,0)" />
    <rect
       style="fill:#808080;fill-opacity:1;stroke:none"
       id="rect3103-1-8-2-6-6-2-1"
       width="4"
       height="4"
       x="329.6835"
       y="966.30646"
       transform="matrix(0.95822837,0.28600417,-0.28600417,0.95822837,0,0)" />
    <rect
       style="fill:#808080;fill-opacity:1;stroke:none"
       id="rect3103-0-6"
       width="4"
       height="4"
       x="751.65741"
       y="678.81439"
       transform="matrix(0.67455193,0.7382274,-0.7382274,0.67455193,0,0)" />
    <rect
       style="fill:#808080;fill-opacity:1;stroke:none"
       id="rect3103-1-3-4"
       width="4"
       height="4"
       x="-498.02518"
       y="880.75403"
       transform="matrix(0.86613967,-0.49980203,0.49980203,0.86613967,0,0)" />
    <rect
       style="fill:#808080;fill-opacity:1;stroke:none"
       id="rect3103-1-8-8-0"
       width="4"
       height="4"
       x="572.80536"
       y="830.45654"
       transform="matrix(0.83332872,0.55277775,-0.55277775,0.83332872,0,0)" />
    <rect
       style="fill:#808080;fill-opacity:1;stroke:none"
       id="rect3103-1-8-2-0-6"
       width="4"
       height="4"
       x="611.75647"
       y="803.48047"
       transform="matrix(0.81199055,0.58367059,-0.58367059,0.81199055,0,0)" />
    <rect
       style="fill:#808080;fill-opacity:1;stroke:none"
       id="rect3103-1-8-2-6-1-1"
       width="4"
       height="4"
       x="402.77969"
       y="927.36273"
       transform="matrix(0.93047373,0.36635861,-0.36635861,0.93047373,0,0)" />
    <rect
       style="fill:#808080;fill-opacity:1;stroke:none"
       id="rect3103-1-8-2-6-6-2-89"
       width="4"
       height="4"
       x="593.16125"
       y="819.06958"
       transform="matrix(0.83332872,0.55277775,-0.55277775,0.83332872,0,0)" />
  </g>
</svg>
