<?xml version="1.0" encoding="UTF-8" standalone="no"?>
<!-- Created with Inkscape (http://www.inkscape.org/) -->

<svg
   xmlns:dc="http://purl.org/dc/elements/1.1/"
   xmlns:cc="http://creativecommons.org/ns#"
   xmlns:rdf="http://www.w3.org/1999/02/22-rdf-syntax-ns#"
   xmlns:svg="http://www.w3.org/2000/svg"
   xmlns="http://www.w3.org/2000/svg"
   xmlns:sodipodi="http://sodipodi.sourceforge.net/DTD/sodipodi-0.dtd"
   xmlns:inkscape="http://www.inkscape.org/namespaces/inkscape"
   width="48"
   height="48"
   id="svg3803"
   version="1.1"
   inkscape:version="0.48.4 r9939"
   sodipodi:docname="screenshot.svg"
   inkscape:export-filename="G:\IDE\devs\CobaltSKY\Tools\Editor\resources\screenshot32.png"
   inkscape:export-xdpi="60"
   inkscape:export-ydpi="60">
  <defs
     id="defs3805" />
  <sodipodi:namedview
     id="base"
     pagecolor="#ffffff"
     bordercolor="#666666"
     borderopacity="1.0"
     inkscape:pageopacity="0.0"
     inkscape:pageshadow="2"
     inkscape:zoom="13.538149"
     inkscape:cx="29.66304"
     inkscape:cy="17.150347"
     inkscape:document-units="px"
     inkscape:current-layer="layer1"
     showgrid="true"
     inkscape:window-width="1920"
     inkscape:window-height="1125"
     inkscape:window-x="1911"
     inkscape:window-y="-9"
     inkscape:window-maximized="1">
    <inkscape:grid
       type="xygrid"
       id="grid3811"
       empspacing="5"
       visible="true"
       enabled="true"
       snapvisiblegridlinesonly="true" />
  </sodipodi:namedview>
  <metadata
     id="metadata3808">
    <rdf:RDF>
      <cc:Work
         rdf:about="">
        <dc:format>image/svg+xml</dc:format>
        <dc:type
           rdf:resource="http://purl.org/dc/dcmitype/StillImage" />
        <dc:title></dc:title>
      </cc:Work>
    </rdf:RDF>
  </metadata>
  <g
     inkscape:label="Ebene 1"
     inkscape:groupmode="layer"
     id="layer1"
     transform="translate(0,-1004.3622)">
    <path
       style="fill:#808080;fill-opacity:1;stroke:none"
       d="m 16,1008.3622 16,0 6,12 -28,0 z"
       id="rect3059"
       inkscape:connector-curvature="0"
       sodipodi:nodetypes="ccccc" />
    <path
       style="fill:#808080;fill-opacity:1;stroke:none"
       d="M 4 16 L 4 44 L 44 44 L 44 16 L 4 16 z M 24 20 C 29.522848 20 34 24.477153 34 30 C 34 35.522847 29.522848 40 24 40 C 18.477152 40 14 35.522847 14 30 C 14 24.477153 18.477152 20 24 20 z "
       transform="translate(0,1004.3622)"
       id="rect3813" />
    <path
       sodipodi:type="arc"
       style="fill:#808080;fill-opacity:1;stroke:none"
       id="path3063"
       sodipodi:cx="24.5"
       sodipodi:cy="30.5"
       sodipodi:rx="8.5"
       sodipodi:ry="7.5"
       d="m 33,30.5 a 8.5,7.5 0 1 1 -17,0 8.5,7.5 0 1 1 17,0 z"
       transform="matrix(0.94117647,0,0,1.0666667,0.94117647,1001.8289)" />
  </g>
</svg>
